PathFileType	4	(X/Y/Z)	 staticP082.trc
DataRate	CameraRate	NumFrames	NumMarkers	Units	OrigDataRate	OrigDataStartFrame	OrigNumFrames
100	100	7	53	M	100	26	100
Frame#	Time	RM1D			RM5D			RM2B			LM1D			LM5D			LM2B			RCAL			LCAL			RLMAL			LLMAL			RMMAL			LMMAL			RSTL			LSTL			RFLE			RFME			LFME			LFLE			RHFIB			LHFIB			RTTUB			LTTUB			RSSH			LSSH			RTL			LTL			RTAP			RTAD			LTAP			LTAD			RTPP			RTPD			LTPP			LTPD			RPSIS			LPSIS			RASIS			LASIS			T10			T2			IJ			SA			RACR			LACR			RHLE			LHLE			RUSP			LUSP			RCB			LCB			IN			LHME			RHME			
		X1	Y1	Z1	X2	Y2	Z2	X3	Y3	Z3	X4	Y4	Z4	X5	Y5	Z5	X6	Y6	Z6	X7	Y7	Z7	X8	Y8	Z8	X9	Y9	Z9	X10	Y10	Z10	X11	Y11	Z11	X12	Y12	Z12	X13	Y13	Z13	X14	Y14	Z14	X15	Y15	Z15	X16	Y16	Z16	X17	Y17	Z17	X18	Y18	Z18	X19	Y19	Z19	X20	Y20	Z20	X21	Y21	Z21	X22	Y22	Z22	X23	Y23	Z23	X24	Y24	Z24	X25	Y25	Z25	X26	Y26	Z26	X27	Y27	Z27	X28	Y28	Z28	X29	Y29	Z29	X30	Y30	Z30	X31	Y31	Z31	X32	Y32	Z32	X33	Y33	Z33	X34	Y34	Z34	X35	Y35	Z35	X36	Y36	Z36	X37	Y37	Z37	X38	Y38	Z38	X39	Y39	Z39	X40	Y40	Z40	X41	Y41	Z41	X42	Y42	Z42	X43	Y43	Z43	X44	Y44	Z44	X45	Y45	Z45	X46	Y46	Z46	X47	Y47	Z47	X48	Y48	Z48	X49	Y49	Z49	X50	Y50	Z50	X51	Y51	Z51	X52	Y52	Z52	X53	Y53	Z53	
26	0.2600	-0.249120	0.039390	-0.202604	-0.282260	0.027708	-0.114453	-0.294589	0.058306	-0.165338	-0.262379	0.041149	-0.280837	-0.286238	0.024245	-0.369306	-0.294203	0.053687	-0.315912	-0.461272	0.049559	-0.174152	-0.467376	0.047739	-0.318427	-0.407989	0.072396	-0.129890	-0.407092	0.069403	-0.356631	-0.391130	0.084013	-0.213418	-0.400469	0.086547	-0.272476	-0.408698	0.047478	-0.208146	-0.418333	0.042866	-0.280203	-0.344388	0.470823	-0.088626	-0.373525	0.485630	-0.212119	-0.381819	0.468811	-0.271469	-0.328553	0.478208	-0.386155	-0.368674	0.422133	-0.076118	-0.364356	0.421563	-0.408336	-0.331809	0.402866	-0.154569	-0.327066	0.403686	-0.331108	-0.339946	0.317754	-0.156522	-0.349555	0.181602	-0.321518	-0.328761	0.700557	-0.045218	-0.323315	0.703225	-0.433752	-0.229120	0.768282	-0.128594	-0.247200	0.655316	-0.140209	-0.227030	0.760256	-0.346935	-0.248448	0.641384	-0.340873	-0.446334	0.691450	-0.136068	-0.442213	0.603387	-0.137602	-0.436779	0.698406	-0.367409	-0.435396	0.608029	-0.363058	-0.459256	1.029451	-0.202968	-0.461576	1.026165	-0.299659	-0.253611	0.983127	-0.116774	-0.258311	0.977152	-0.370928	-0.468568	1.219579	-0.248895	-0.444994	1.466851	-0.260245	-0.293136	1.410984	-0.241540	-0.272688	1.364823	-0.238549	-0.355837	1.463523	-0.047015	-0.318177	1.446591	-0.445476	-0.419044	1.131793	-0.020831	-0.374989	1.113945	-0.463415	-0.330894	0.897269	0.033039	-0.306381	0.884783	-0.506840	-0.245275	1.586726	-0.178589	-0.234799	1.582448	-0.311762	-0.400633	1.541483	-0.258601	-0.386035	1.122183	-0.390506	-0.420417	1.129872	-0.102939	
27	0.2700	-0.249122	0.039368	-0.202617	-0.282259	0.027704	-0.114443	-0.294604	0.058304	-0.165343	-0.262430	0.041144	-0.280819	-0.286233	0.024237	-0.369303	-0.294206	0.053695	-0.315919	-0.461300	0.049571	-0.174151	-0.467358	0.047728	-0.318421	-0.407987	0.072427	-0.129867	-0.407082	0.069391	-0.356631	-0.391089	0.083991	-0.213411	-0.400470	0.086527	-0.272467	-0.408716	0.047473	-0.208132	-0.418377	0.042894	-0.280214	-0.344371	0.470834	-0.088625	-0.373532	0.485627	-0.212139	-0.381801	0.468818	-0.271497	-0.328528	0.478216	-0.386175	-0.368652	0.422125	-0.076118	-0.364363	0.421576	-0.408335	-0.331825	0.402854	-0.154583	-0.327052	0.403694	-0.331097	-0.339923	0.317732	-0.156522	-0.349573	0.181587	-0.321494	-0.328800	0.700579	-0.045276	-0.323568	0.703235	-0.433694	-0.229161	0.768290	-0.128587	-0.247205	0.655298	-0.140223	-0.226996	0.760239	-0.346949	-0.248425	0.641397	-0.340896	-0.446318	0.691472	-0.136093	-0.442214	0.603398	-0.137597	-0.436767	0.698411	-0.367401	-0.435402	0.608029	-0.363047	-0.459234	1.029457	-0.202971	-0.461570	1.026168	-0.299657	-0.253535	0.983132	-0.116796	-0.258286	0.977157	-0.370925	-0.468518	1.219615	-0.248866	-0.444909	1.466870	-0.260241	-0.293109	1.411002	-0.241542	-0.272657	1.364820	-0.238554	-0.355724	1.463571	-0.047027	-0.318062	1.446608	-0.445466	-0.418987	1.131867	-0.020667	-0.374921	1.113968	-0.463429	-0.330784	0.897325	0.033239	-0.306225	0.884813	-0.506803	-0.245194	1.586747	-0.178604	-0.234727	1.582456	-0.311719	-0.400566	1.541481	-0.258597	-0.386000	1.122209	-0.390511	-0.420397	1.129920	-0.102752	
28	0.2800	-0.249113	0.039387	-0.202603	-0.282260	0.027697	-0.114439	-0.294600	0.058294	-0.165341	-0.262414	0.041133	-0.280814	-0.286235	0.024252	-0.369294	-0.294198	0.053692	-0.315918	-0.461261	0.049567	-0.174155	-0.467367	0.047730	-0.318412	-0.407962	0.072412	-0.129845	-0.407076	0.069383	-0.356632	-0.391072	0.083990	-0.213399	-0.400456	0.086546	-0.272464	-0.408709	0.047481	-0.208133	-0.418332	0.042868	-0.280191	-0.344361	0.470829	-0.088625	-0.373541	0.485634	-0.212135	-0.381804	0.468807	-0.271473	-0.328541	0.478194	-0.386162	-0.368617	0.422136	-0.076127	-0.364341	0.421579	-0.408327	-0.331808	0.402873	-0.154588	-0.327066	0.403708	-0.331094	-0.339886	0.317764	-0.156522	-0.349595	0.181598	-0.321505	-0.328689	0.700579	-0.045232	-0.323635	0.703258	-0.433698	-0.229124	0.768309	-0.128657	-0.247205	0.655284	-0.140243	-0.227011	0.760236	-0.346938	-0.248458	0.641375	-0.340900	-0.446307	0.691476	-0.136108	-0.442186	0.603388	-0.137600	-0.436768	0.698407	-0.367411	-0.435407	0.608032	-0.363017	-0.459214	1.029446	-0.202951	-0.461550	1.026159	-0.299672	-0.253542	0.983124	-0.116817	-0.258269	0.977160	-0.370925	-0.468485	1.219655	-0.248840	-0.444831	1.466901	-0.260229	-0.292909	1.410987	-0.241505	-0.272537	1.364804	-0.238536	-0.355611	1.463599	-0.047009	-0.317947	1.446595	-0.445462	-0.418929	1.131931	-0.020527	-0.374827	1.113967	-0.463468	-0.330723	0.897390	0.033423	-0.306095	0.884834	-0.506813	-0.245145	1.586751	-0.178559	-0.234650	1.582498	-0.311715	-0.400489	1.541478	-0.258619	-0.385944	1.122211	-0.390526	-0.420369	1.129949	-0.102605	
29	0.2900	-0.249114	0.039394	-0.202599	-0.282243	0.027702	-0.114453	-0.294596	0.058302	-0.165356	-0.262414	0.041133	-0.280814	-0.286232	0.024238	-0.369301	-0.294196	0.053703	-0.315896	-0.461264	0.049565	-0.174147	-0.467369	0.047738	-0.318405	-0.407969	0.072408	-0.129865	-0.407092	0.069408	-0.356644	-0.391094	0.083994	-0.213420	-0.400465	0.086548	-0.272467	-0.408713	0.047479	-0.208119	-0.418320	0.042868	-0.280229	-0.344337	0.470844	-0.088644	-0.374204	0.485570	-0.212853	-0.381799	0.468805	-0.271469	-0.328553	0.478198	-0.386180	-0.368616	0.422144	-0.076134	-0.364358	0.421575	-0.408317	-0.331799	0.402881	-0.154609	-0.327054	0.403701	-0.331121	-0.339900	0.317763	-0.156556	-0.349593	0.181591	-0.321534	-0.328676	0.700549	-0.045240	-0.323571	0.703272	-0.433693	-0.229098	0.768298	-0.128671	-0.247177	0.655308	-0.140288	-0.226996	0.760243	-0.346915	-0.248448	0.641385	-0.340895	-0.446291	0.691477	-0.136097	-0.442169	0.603389	-0.137588	-0.436753	0.698406	-0.367424	-0.435383	0.608013	-0.363023	-0.459203	1.029445	-0.202958	-0.461543	1.026155	-0.299670	-0.253484	0.983152	-0.116820	-0.258246	0.977179	-0.370936	-0.468462	1.219678	-0.248817	-0.444743	1.466918	-0.260218	-0.292943	1.411013	-0.241509	-0.272488	1.364795	-0.238498	-0.355509	1.463649	-0.047004	-0.317880	1.446638	-0.445458	-0.418877	1.131976	-0.020432	-0.374761	1.113974	-0.463486	-0.330719	0.897492	0.033547	-0.305972	0.884839	-0.506838	-0.245066	1.586759	-0.178528	-0.234565	1.582535	-0.311685	-0.400424	1.541452	-0.258628	-0.385919	1.122225	-0.390546	-0.420312	1.129955	-0.102508	
30	0.3000	-0.249100	0.039404	-0.202587	-0.282249	0.027716	-0.114466	-0.294588	0.058312	-0.165345	-0.262410	0.041154	-0.280823	-0.286238	0.024260	-0.369292	-0.294188	0.053704	-0.315905	-0.461268	0.049573	-0.174153	-0.467363	0.047736	-0.318421	-0.407966	0.072393	-0.129857	-0.407094	0.069398	-0.356647	-0.391059	0.083978	-0.213430	-0.400464	0.086535	-0.272454	-0.408730	0.047506	-0.208131	-0.418332	0.042866	-0.280223	-0.344305	0.470829	-0.088673	-0.373533	0.485624	-0.212156	-0.381790	0.468820	-0.271479	-0.328556	0.478211	-0.386180	-0.368602	0.422148	-0.076144	-0.364351	0.421581	-0.408329	-0.331764	0.402885	-0.154605	-0.327050	0.403718	-0.331118	-0.339941	0.317768	-0.156555	-0.349570	0.181601	-0.321511	-0.328622	0.700573	-0.045278	-0.323553	0.703274	-0.433743	-0.229106	0.768328	-0.128714	-0.247189	0.655285	-0.140311	-0.226990	0.760235	-0.346916	-0.248420	0.641419	-0.340895	-0.446292	0.691463	-0.136093	-0.442153	0.603371	-0.137591	-0.436758	0.698391	-0.367464	-0.435384	0.608016	-0.363032	-0.459189	1.029423	-0.202967	-0.461537	1.026155	-0.299671	-0.253494	0.983132	-0.116837	-0.258225	0.977187	-0.370916	-0.468448	1.219704	-0.248798	-0.444675	1.466936	-0.260195	-0.292854	1.411018	-0.241480	-0.272412	1.364773	-0.238490	-0.355378	1.463689	-0.046949	-0.317762	1.446617	-0.445390	-0.418845	1.132032	-0.020369	-0.374701	1.113980	-0.463503	-0.330486	0.897392	0.033088	-0.305890	0.884858	-0.506845	-0.245041	1.586766	-0.178496	-0.234524	1.582550	-0.311683	-0.400348	1.541445	-0.258639	-0.385877	1.122206	-0.390602	-0.420242	1.129975	-0.102445	
31	0.3100	-0.249076	0.039387	-0.202584	-0.282241	0.027720	-0.114438	-0.294593	0.058306	-0.165354	-0.262410	0.041135	-0.280830	-0.286217	0.024250	-0.369279	-0.294210	0.053705	-0.315913	-0.461264	0.049559	-0.174167	-0.467355	0.047717	-0.318418	-0.407966	0.072407	-0.129879	-0.407081	0.069401	-0.356627	-0.391116	0.084003	-0.213446	-0.400467	0.086535	-0.272473	-0.408715	0.047478	-0.208134	-0.418355	0.042894	-0.280204	-0.344314	0.470841	-0.088681	-0.373530	0.485627	-0.212154	-0.381832	0.468808	-0.271471	-0.328550	0.478206	-0.386180	-0.368570	0.422159	-0.076152	-0.364367	0.421589	-0.408339	-0.331781	0.402878	-0.154616	-0.327057	0.403708	-0.331126	-0.339860	0.317759	-0.156592	-0.349548	0.181612	-0.321479	-0.328586	0.700545	-0.045289	-0.323271	0.703267	-0.433749	-0.229119	0.768308	-0.128738	-0.247158	0.655311	-0.140343	-0.226996	0.760255	-0.346904	-0.248500	0.641388	-0.340881	-0.446279	0.691449	-0.136071	-0.442158	0.603355	-0.137578	-0.436747	0.698386	-0.367473	-0.435375	0.608025	-0.363035	-0.459182	1.029409	-0.202977	-0.461526	1.026158	-0.299674	-0.253465	0.983130	-0.116826	-0.258208	0.977209	-0.370917	-0.468403	1.219722	-0.248769	-0.444618	1.466964	-0.260174	-0.292820	1.411000	-0.241468	-0.272346	1.364798	-0.238420	-0.355266	1.463695	-0.046960	-0.317684	1.446644	-0.445417	-0.418767	1.132049	-0.020361	-0.374655	1.113995	-0.463507	-0.330634	0.897565	0.033716	-0.305817	0.884886	-0.506845	-0.244943	1.586794	-0.178505	-0.234426	1.582552	-0.311629	-0.400287	1.541426	-0.258606	-0.385842	1.122231	-0.390600	-0.420146	1.130008	-0.102434	
32	0.3200	-0.249109	0.039396	-0.202600	-0.282250	0.027709	-0.114460	-0.294597	0.058308	-0.165349	-0.262421	0.041140	-0.280819	-0.286246	0.024247	-0.369311	-0.294193	0.053696	-0.315906	-0.461261	0.049567	-0.174152	-0.467363	0.047738	-0.318424	-0.407972	0.072403	-0.129849	-0.407085	0.069392	-0.356644	-0.391113	0.083995	-0.213418	-0.400473	0.086530	-0.272462	-0.408702	0.047482	-0.208153	-0.418340	0.042879	-0.280192	-0.344292	0.470817	-0.088672	-0.374198	0.485562	-0.212863	-0.381842	0.468818	-0.271499	-0.328562	0.478211	-0.386193	-0.368599	0.422152	-0.076158	-0.364353	0.421567	-0.408349	-0.331766	0.402868	-0.154628	-0.327060	0.403705	-0.331119	-0.339899	0.317744	-0.156571	-0.349576	0.181617	-0.321535	-0.328590	0.700566	-0.045284	-0.323153	0.703296	-0.433781	-0.229095	0.768310	-0.128755	-0.247148	0.655321	-0.140367	-0.226971	0.760255	-0.346884	-0.248471	0.641400	-0.340840	-0.446300	0.691462	-0.136040	-0.442152	0.603354	-0.137554	-0.436747	0.698398	-0.367500	-0.435389	0.608023	-0.363071	-0.459186	1.029402	-0.202970	-0.461521	1.026163	-0.299682	-0.253454	0.983115	-0.116807	-0.258257	0.977196	-0.370893	-0.468387	1.219756	-0.248758	-0.444546	1.466986	-0.260146	-0.292743	1.411028	-0.241450	-0.272276	1.364749	-0.238399	-0.355159	1.463724	-0.046912	-0.317588	1.446651	-0.445343	-0.418718	1.132081	-0.020306	-0.374618	1.114007	-0.463508	-0.330592	0.897599	0.033759	-0.305756	0.884888	-0.506888	-0.244889	1.586780	-0.178484	-0.234349	1.582550	-0.311616	-0.400225	1.541442	-0.258582	-0.385814	1.122263	-0.390612	-0.420058	1.130049	-0.102421	
